# xmcd
#
# Track frame offsets: 
#        150
#        19888
#        33344
#        46744
#        59961
#        72970
#        92117
#        107397
#        119979
#        132810
#        145448
#        165700
#
# Disc length: 2563 seconds
#
# Revision: 0
# Processed by: cddbd v1.5.2PL0 Copyright (c) Steve Scherf et al.
# Submitted via: ExactAudioCopy v0.95b3
#
DISCID=b10a010c
DTITLE=Double Dose - one day blues session
DYEAR=1995
DGENRE=blues
TTITLE0=i have the same old blues
TTITLE1=something you got
TTITLE2=i believe i'm in love with you
TTITLE3=i ain't got you
TTITLE4=walking on sunset
TTITLE5=i'm ready
TTITLE6=my babe
TTITLE7=the crawl
TTITLE8=don't you lie to me
TTITLE9=if you love me like you babe
TTITLE10=come babe
TTITLE11=you make me feel so blue
EXTD=
EXTT0=
EXTT1=
EXTT2=
EXTT3=
EXTT4=
EXTT5=
EXTT6=
EXTT7=
EXTT8=
EXTT9=
EXTT10=
EXTT11=
PLAYORDER=
